<svg height="512pt" viewBox="0 0 512 512.00012" width="512pt" xmlns="http://www.w3.org/2000/svg"><path d="m223.121094 477.703125c0 18.941406-15.355469 34.296875-34.296875 34.296875-18.941407 0-34.296875-15.355469-34.296875-34.296875s15.355468-34.300781 34.296875-34.300781c18.941406 0 34.296875 15.359375 34.296875 34.300781zm0 0" fill="#4e56b0"/><path d="m188.824219 502c-17.238281 0-31.464844-12.730469-33.894531-29.296875-.238282 1.636719-.40625 3.296875-.40625 5 0 18.941406 15.355468 34.296875 34.296874 34.296875 18.945313 0 34.300782-15.355469 34.300782-34.296875 0-1.703125-.167969-3.363281-.40625-5-2.425782 16.566406-16.652344 29.296875-33.890625 29.296875zm0 0" fill="#339"/><path d="m433.058594 477.703125c0 18.941406-15.355469 34.296875-34.296875 34.296875-18.941407 0-34.296875-15.355469-34.296875-34.296875s15.355468-34.300781 34.296875-34.300781c18.941406 0 34.296875 15.359375 34.296875 34.300781zm0 0" fill="#4e56b0"/><path d="m398.761719 502c-17.238281 0-31.464844-12.730469-33.894531-29.296875-.238282 1.636719-.40625 3.296875-.40625 5 0 18.941406 15.355468 34.296875 34.300781 34.296875 18.941406 0 34.296875-15.355469 34.296875-34.296875 0-1.703125-.167969-3.363281-.40625-5-2.421875 16.566406-16.648438 29.296875-33.890625 29.296875zm0 0" fill="#339"/><path d="m512 78c0 43.078125-34.921875 78-78 78s-78-34.921875-78-78 34.921875-78 78-78 78 34.921875 78 78zm0 0" fill="#d476e2"/><path d="m433.863281 7.960938c41.792969-.074219 75.964844 32.742187 78.03125 74.039062.070313-1.371094.109375-2.746094.105469-4.136719-.074219-43.078125-35.058594-77.9374998-78.136719-77.863281s-77.9375 35.058594-77.863281 78.136719c.003906 1.285156.039062 2.558593.105469 3.824219 2.078125-41.160157 36.066406-73.925782 77.757812-74zm0 0" fill="#ea82fa"/><path d="m424.835938 114.175781c-3.085938 0-6.195313-1.003906-8.800782-3.0625l-17.5-13.839843c-6.148437-4.863282-7.191406-13.792969-2.328125-19.941407 4.859375-6.148437 13.789063-7.195312 19.941407-2.328125l6.527343 5.160156 26.972657-33.109374c4.957031-6.078126 13.898437-6.992188 19.976562-2.039063s6.988281 13.898437 2.035156 19.972656l-35.8125 43.957031c-2.800781 3.4375-6.890625 5.230469-11.011718 5.230469zm0 0" fill="#fff7f2"/><path d="m509.375 180.253906c-2.316406-2.9375-5.789062-4.617187-9.527344-4.617187h-379.328125l-15.195312-40.222657c-4.101563-10.859374-12.074219-19.699218-22.457031-24.890624l-9.191407-4.59375c.234375 1.097656.363281 2.234374.363281 3.402343 0 6.53125-3.867187 12.144531-9.433593 14.710938l9.199219 4.601562c5.8125 2.90625 10.273437 7.847657 12.570312 13.925781l76.484375 202.515626c4.292969 11.363281 14.800781 19.28125 26.734375 20.480468-18.941406 10.648438-30.925781 23.757813-35.660156 39.136719-3.609375 11.722656-.363282 19.601563 2.992187 24.144531 4.964844 6.722656 13.253907 10.382813 22.578125 12.363282l-.1875 37.476562c-.050781 9.953125 12.851563 13.917969 18.402344 5.652344l27.460938-40.90625h165.191406l-.175782 35.253906c-.050781 9.953125 12.851563 13.917969 18.402344 5.652344l27.457032-40.90625h15.996093c5.59375 0 10.128907-4.535156 10.128907-10.128906s-4.535157-10.128907-10.128907-10.128907h-245.871093c-25.503907 0-31.542969-4.449219-32.957032-6.363281-.851562-1.148438-.824218-3.21875.074219-6.148438 8.457031-27.472656 57.222656-41.574218 76.324219-44.914062h195.109375c14.863281 0 27.644531-10.097656 31.082031-24.550781l35.855469-150.605469c.863281-3.640625.027343-7.410156-2.292969-10.339844zm-381.207031 15.640625h114.664062l8.753907 62.234375h-99.910157zm64.582031 149.589844c-4.832031 0-9.226562-3.035156-10.9375-7.558594l-22.488281-59.539062h95.113281l9.441406 67.097656zm168.015625 0h-76.425781l-9.441406-67.097656h93.945312zm10.515625-87.355469h-99.234375l-8.753906-62.234375h115.480469zm84.824219 78.375c-1.257813 5.289063-5.933594 8.980469-11.371094 8.980469h-63.566406l8.078125-67.097656h80.695312zm18.65625-78.375h-83.078125l7.492187-62.234375h90.398438zm0 0" fill="#6770e6"/><path d="m57.828125 125.539062h-41.621094c-8.949219 0-16.207031-7.257812-16.207031-16.207031 0-8.953125 7.257812-16.210937 16.207031-16.210937h41.621094c8.953125 0 16.210937 7.257812 16.210937 16.210937 0 8.949219-7.257812 16.207031-16.210937 16.207031zm0 0" fill="#ff8354"/><path d="m507.941406 178.71875c-2.292968-2.078125-5.371094-3.082031-8.46875-3.082031h-378.957031l-15.195313-40.226563c-4.089843-10.824218-12.109374-19.714844-22.457031-24.890625l-9.191406-4.59375c.234375 1.097657.363281 2.234375.363281 3.402344 0 2.183594-.4375 4.265625-1.222656 6.167969l10.046875 5.023437c10.351563 5.175781 18.375 14.0625 22.464844 24.890625l14.429687 38.207032c.457032 1.214843 1.621094 2.015624 2.921875 2.015624h377.171875c3.738282 0 7.210938 1.683594 9.527344 4.617188.707031.894531 1.257812 1.871094 1.683594 2.890625l.609375-2.554687c1.023437-4.304688-.339844-8.796876-3.726563-11.867188zm0 0" fill="#8f95e6"/><path d="m16.207031 103.125h41.621094c7.207031 0 13.304687 4.703125 15.414063 11.207031.511718-1.574219.796874-3.253906.796874-5 0-8.953125-7.257812-16.207031-16.210937-16.207031h-41.621094c-8.949219 0-16.207031 7.253906-16.207031 16.207031 0 1.742188.285156 3.421875.792969 5 2.109375-6.503906 8.210937-11.207031 15.414062-11.207031zm0 0" fill="#ffac8c"/></svg>